<?xml version="1.0" encoding="utf-8"?>
<!-- Generator: Adobe Illustrator 27.3.1, SVG Export Plug-In . SVG Version: 6.00 Build 0)  -->
<svg version="1.1" id="Camada_1" xmlns="http://www.w3.org/2000/svg" xmlns:xlink="http://www.w3.org/1999/xlink" x="0px" y="0px"
	 viewBox="0 0 300 300" style="enable-background:new 0 0 300 300;" xml:space="preserve">
<style type="text/css">
	.st0{fill:#FFFFFF;}
</style>
<path class="st0" d="M269.5,132.53c-33.21,0-66.42,0-99.64,0c0-23.61,0-47.22,0-70.83c0-9.6,0-19.2,0-28.81
	c0-21.98-34.16-22.02-34.16,0c0,33.21,0,66.42,0,99.64c-23.61,0-47.22,0-70.83,0c-9.6,0-19.2,0-28.81,0
	c-21.98,0-22.02,34.16,0,34.16c33.21,0,66.42,0,99.64,0c0,23.61,0,47.22,0,70.83c0,9.6,0,19.2,0,28.81c0,21.98,34.16,22.02,34.16,0
	c0-33.21,0-66.42,0-99.64c23.61,0,47.22,0,70.83,0c9.6,0,19.2,0,28.81,0C291.48,166.69,291.52,132.53,269.5,132.53z"/>
</svg>
