<?xml version="1.0" encoding="utf-8"?>
<!-- Generator: Adobe Illustrator 27.3.1, SVG Export Plug-In . SVG Version: 6.00 Build 0)  -->
<svg version="1.1" id="Camada_1" xmlns="http://www.w3.org/2000/svg" xmlns:xlink="http://www.w3.org/1999/xlink" x="0px" y="0px"
	 viewBox="0 0 300 300" style="enable-background:new 0 0 300 300;" xml:space="preserve">
<style type="text/css">
	.st0{fill:#9C9C9C;}
</style>
<g>
	<path class="st0" d="M100.7,178.65c-4.11-2.37-8.51-2.3-13.05-2.3c-3.61,0-7.23-0.03-10.84,0c-7.3,0.06-13.48,4.34-16.21,11.07
		c-1.64,4.04-1.14,8.81-1.14,13.08c0,5.81,1.23,11.39,5.92,15.31c3.21,2.69,7.04,4.11,11.24,4.19c1.48,0.03,2.96,0,4.44,0
		c3.69,0,7.38,0,11.08,0c7.86-0.18,15.12-5.58,16.71-13.47c0.78-3.88,0.4-8.07,0.4-12C109.24,188.05,106.48,181.99,100.7,178.65z
		 M96.24,206.14C95.82,206.81,96.06,206.39,96.24,206.14L96.24,206.14z M95.38,189.36C96.05,189.77,95.63,189.53,95.38,189.36
		L95.38,189.36z M76.57,208.1c-0.24,0-0.49-0.03-0.72-0.03c0,0,0,0,0,0c-0.41-0.14-0.84-0.25-1.26-0.37
		c0.01-0.05-0.99-0.53-1.2-0.66c-0.02-0.01-0.07-0.05-0.11-0.08c-0.17-0.17-0.5-0.5-0.56-0.56c-0.09-0.08-0.11-0.1-0.17-0.15
		c-0.14-0.19-0.27-0.39-0.39-0.59c-0.11-0.18-0.21-0.49-0.36-0.65c-0.01-0.01,0,0-0.01-0.01c-0.12-0.54-0.3-1.1-0.45-1.64
		c0.31,1.2,0.03-0.13,0.02-0.53c-0.05-2.95-0.01-5.9,0-8.85c0-0.53,0.02-1.05,0.05-1.58c-0.05,1.13,0.11-0.18,0.23-0.66
		c0.06-0.24,0.16-0.48,0.24-0.71c-0.45,1.24,0.14-0.14,0.27-0.35c0.11-0.18,0.25-0.36,0.36-0.55c0.02-0.01,0.01,0.01,0.03-0.01
		c0.22-0.13,0.82-0.7,0.8-0.76c0.39-0.25,0.79-0.49,1.2-0.73c0.35-0.09,0.7-0.21,1.05-0.31c0.08-0.02,0.09-0.03,0.15-0.04
		c0.28-0.02,0.55-0.03,0.83-0.04c0.05,0,0.1,0,0.15,0c0.42-0.01,0.84,0,1.26,0c1.62,0,3.25,0,4.87,0c3.03,0,6.06-0.05,9.09,0
		c0.35,0.01,1.04,0.11,1.07,0.09c0.39,0.09,0.77,0.2,1.16,0.33c0.03,0.06,0.86,0.46,1.15,0.64c0.22,0.21,0.45,0.44,0.67,0.64
		c0.01,0.01,0.05,0.05,0.1,0.1c0.11,0.15,0.28,0.35,0.33,0.43c0.23,0.39,0.79,1.62,0.4,0.56c0.11,0.31,0.23,0.63,0.32,0.95
		c0.02,0.07,0.09,0.41,0.15,0.67c0.01,0.27,0.05,0.75,0.06,0.87c0,0.19,0,0.37,0,0.56c0,0.87,0,1.75,0,2.62c0,1.85,0.01,3.7,0,5.55
		c0,0.19,0,0.39,0,0.58c0,0.05-0.05,0.62-0.06,0.87c-0.04,0.16-0.07,0.33-0.09,0.4c-0.07,0.27-0.16,0.53-0.25,0.79
		c-0.04-0.02-0.49,0.89-0.66,1.17c-0.22,0.22-0.68,0.58-0.83,0.84c-0.01,0.02,0,0.01-0.01,0.03c-0.32,0.18-0.68,0.41-0.98,0.61
		c-0.06,0.04-0.17,0.09-0.27,0.14c-0.2,0.07-0.4,0.14-0.6,0.2c-0.19,0.05-0.37,0.09-0.56,0.13c0.07-0.03-0.53,0.07-0.91,0.08
		C86.95,208.1,81.75,208.2,76.57,208.1z"/>
	<path class="st0" d="M159.89,178.65c-4.11-2.37-8.51-2.3-13.05-2.3c-3.61,0-7.23-0.03-10.84,0c-7.3,0.06-13.48,4.34-16.21,11.07
		c-1.64,4.04-1.14,8.81-1.14,13.08c0,5.81,1.23,11.39,5.92,15.31c3.21,2.69,7.04,4.11,11.24,4.19c1.48,0.03,2.96,0,4.44,0
		c3.69,0,7.38,0,11.08,0c7.86-0.18,15.12-5.58,16.71-13.47c0.78-3.88,0.4-8.07,0.4-12C168.44,188.05,165.67,181.99,159.89,178.65z
		 M155.43,206.14C155.01,206.81,155.25,206.39,155.43,206.14L155.43,206.14z M154.57,189.36
		C155.24,189.77,154.82,189.53,154.57,189.36L154.57,189.36z M135.76,208.1c-0.24,0-0.49-0.03-0.72-0.03c0,0,0,0,0,0
		c-0.41-0.14-0.84-0.25-1.26-0.37c0.01-0.05-0.99-0.53-1.2-0.66c-0.02-0.01-0.07-0.05-0.11-0.08c-0.17-0.17-0.5-0.5-0.56-0.56
		c-0.09-0.08-0.11-0.1-0.17-0.15c-0.13-0.19-0.27-0.39-0.39-0.59c-0.11-0.18-0.21-0.49-0.36-0.65c-0.01-0.01,0,0-0.01-0.01
		c-0.12-0.54-0.3-1.1-0.45-1.64c0.31,1.2,0.03-0.13,0.02-0.53c-0.05-2.95-0.01-5.9,0-8.85c0-0.53,0.02-1.05,0.05-1.58
		c-0.05,1.13,0.11-0.18,0.23-0.66c0.06-0.24,0.16-0.48,0.24-0.71c-0.45,1.24,0.14-0.14,0.27-0.35c0.11-0.18,0.25-0.36,0.36-0.55
		c0.02-0.01,0.01,0.01,0.03-0.01c0.22-0.13,0.82-0.7,0.8-0.76c0.39-0.25,0.79-0.49,1.2-0.73c0.35-0.09,0.7-0.21,1.05-0.31
		c0.08-0.02,0.09-0.03,0.15-0.04c0.28-0.02,0.55-0.03,0.83-0.04c0.05,0,0.1,0,0.15,0c0.42-0.01,0.84,0,1.26,0c1.62,0,3.25,0,4.87,0
		c3.03,0,6.06-0.05,9.09,0c0.35,0.01,1.04,0.11,1.07,0.09c0.39,0.09,0.77,0.2,1.16,0.33c0.03,0.06,0.86,0.46,1.15,0.64
		c0.22,0.21,0.44,0.44,0.67,0.64c0.01,0.01,0.06,0.05,0.1,0.1c0.11,0.15,0.28,0.35,0.33,0.43c0.23,0.39,0.79,1.62,0.4,0.56
		c0.11,0.31,0.22,0.63,0.32,0.95c0.02,0.07,0.09,0.41,0.15,0.67c0.01,0.27,0.06,0.75,0.06,0.87c0,0.19,0,0.37,0,0.56
		c0,0.87,0,1.75,0,2.62c0,1.85,0.01,3.7,0,5.55c0,0.19,0,0.39,0,0.58c0,0.05-0.05,0.62-0.06,0.87c-0.04,0.16-0.07,0.33-0.09,0.4
		c-0.07,0.27-0.16,0.53-0.25,0.79c-0.04-0.02-0.49,0.89-0.66,1.17c-0.22,0.22-0.68,0.58-0.83,0.84c-0.01,0.02,0,0.01-0.01,0.03
		c-0.32,0.18-0.68,0.41-0.98,0.61c-0.06,0.04-0.17,0.09-0.27,0.14c-0.2,0.07-0.4,0.14-0.6,0.2c-0.19,0.05-0.37,0.09-0.56,0.13
		c0.07-0.03-0.53,0.07-0.91,0.08C146.14,208.1,140.94,208.2,135.76,208.1z"/>
	<path class="st0" d="M221.45,178.65c-4.11-2.37-8.51-2.3-13.05-2.3c-3.61,0-7.23-0.03-10.84,0c-7.3,0.06-13.48,4.34-16.21,11.07
		c-1.64,4.04-1.14,8.81-1.14,13.08c0,5.81,1.23,11.39,5.92,15.31c3.21,2.69,7.04,4.11,11.24,4.19c1.48,0.03,2.96,0,4.44,0
		c3.69,0,7.38,0,11.08,0c7.86-0.18,15.12-5.58,16.71-13.47c0.78-3.88,0.4-8.07,0.4-12C229.99,188.05,227.23,181.99,221.45,178.65z
		 M216.99,206.14C216.57,206.81,216.81,206.39,216.99,206.14L216.99,206.14z M216.13,189.36
		C216.8,189.77,216.38,189.53,216.13,189.36L216.13,189.36z M197.32,208.1c-0.24,0-0.49-0.03-0.72-0.03c0,0,0,0,0,0
		c-0.41-0.14-0.84-0.25-1.26-0.37c0.01-0.05-0.99-0.53-1.2-0.66c-0.02-0.01-0.07-0.05-0.11-0.08c-0.17-0.17-0.5-0.5-0.56-0.56
		c-0.09-0.08-0.11-0.1-0.17-0.15c-0.14-0.19-0.27-0.39-0.39-0.59c-0.11-0.18-0.21-0.49-0.36-0.65c-0.01-0.01,0,0-0.01-0.01
		c-0.12-0.54-0.3-1.1-0.45-1.64c0.31,1.2,0.03-0.13,0.02-0.53c-0.05-2.95-0.01-5.9,0-8.85c0-0.53,0.02-1.05,0.05-1.58
		c-0.05,1.13,0.11-0.18,0.23-0.66c0.06-0.24,0.16-0.48,0.24-0.71c-0.45,1.24,0.14-0.14,0.27-0.35c0.11-0.18,0.25-0.36,0.36-0.55
		c0.02-0.01,0.01,0.01,0.03-0.01c0.22-0.13,0.82-0.7,0.8-0.76c0.39-0.25,0.79-0.49,1.2-0.73c0.35-0.09,0.7-0.21,1.05-0.31
		c0.08-0.02,0.09-0.03,0.15-0.04c0.28-0.02,0.55-0.03,0.83-0.04c0.05,0,0.1,0,0.15,0c0.42-0.01,0.84,0,1.26,0c1.62,0,3.25,0,4.87,0
		c3.03,0,6.06-0.05,9.09,0c0.35,0.01,1.04,0.11,1.07,0.09c0.39,0.09,0.77,0.2,1.16,0.33c0.03,0.06,0.86,0.46,1.15,0.64
		c0.22,0.21,0.45,0.44,0.67,0.64c0.01,0.01,0.05,0.05,0.1,0.1c0.11,0.15,0.28,0.35,0.33,0.43c0.23,0.39,0.79,1.62,0.4,0.56
		c0.11,0.31,0.23,0.63,0.32,0.95c0.02,0.07,0.09,0.41,0.15,0.67c0.01,0.27,0.05,0.75,0.06,0.87c0,0.19,0,0.37,0,0.56
		c0,0.87,0,1.75,0,2.62c0,1.85,0.01,3.7,0,5.55c0,0.19,0,0.39,0,0.58c0,0.05-0.05,0.62-0.06,0.87c-0.04,0.16-0.07,0.33-0.09,0.4
		c-0.07,0.27-0.16,0.53-0.25,0.79c-0.04-0.02-0.49,0.89-0.66,1.17c-0.22,0.22-0.68,0.58-0.83,0.84c-0.01,0.02,0,0.01-0.01,0.03
		c-0.32,0.18-0.68,0.41-0.98,0.61c-0.06,0.04-0.17,0.09-0.27,0.14c-0.2,0.07-0.4,0.14-0.6,0.2c-0.19,0.05-0.37,0.09-0.56,0.13
		c0.07-0.03-0.53,0.07-0.91,0.08C207.7,208.1,202.5,208.2,197.32,208.1z"/>
	<path class="st0" d="M100.7,120.43c-4.11-2.37-8.51-2.3-13.05-2.3c-3.61,0-7.23-0.03-10.84,0c-7.3,0.06-13.48,4.34-16.21,11.07
		c-1.64,4.04-1.14,8.81-1.14,13.08c0,5.81,1.23,11.39,5.92,15.31c3.21,2.69,7.04,4.11,11.24,4.19c1.48,0.03,2.96,0,4.44,0
		c3.69,0,7.38,0,11.08,0c7.86-0.18,15.12-5.58,16.71-13.47c0.78-3.88,0.4-8.07,0.4-12C109.24,129.84,106.48,123.77,100.7,120.43z
		 M96.24,147.93C95.82,148.59,96.06,148.18,96.24,147.93L96.24,147.93z M95.38,131.15C96.05,131.56,95.63,131.32,95.38,131.15
		L95.38,131.15z M76.57,149.89c-0.24,0-0.49-0.03-0.72-0.03c0,0,0,0,0,0c-0.41-0.14-0.84-0.25-1.26-0.37
		c0.01-0.05-0.99-0.53-1.2-0.66c-0.02-0.01-0.07-0.05-0.11-0.08c-0.17-0.17-0.5-0.5-0.56-0.56c-0.09-0.08-0.11-0.1-0.17-0.15
		c-0.14-0.19-0.27-0.39-0.39-0.59c-0.11-0.18-0.21-0.49-0.36-0.65c-0.01-0.01,0,0-0.01-0.01c-0.12-0.54-0.3-1.1-0.45-1.64
		c0.31,1.2,0.03-0.13,0.02-0.53c-0.05-2.95-0.01-5.9,0-8.85c0-0.53,0.02-1.05,0.05-1.58c-0.05,1.13,0.11-0.18,0.23-0.66
		c0.06-0.24,0.16-0.48,0.24-0.71c-0.45,1.24,0.14-0.14,0.27-0.35c0.11-0.18,0.25-0.36,0.36-0.55c0.02-0.01,0.01,0.01,0.03-0.01
		c0.22-0.13,0.82-0.7,0.8-0.76c0.39-0.25,0.79-0.49,1.2-0.73c0.35-0.09,0.7-0.21,1.05-0.31c0.08-0.02,0.09-0.03,0.15-0.04
		c0.28-0.02,0.55-0.03,0.83-0.04c0.05,0,0.1,0,0.15,0c0.42-0.01,0.84,0,1.26,0c1.62,0,3.25,0,4.87,0c3.03,0,6.06-0.05,9.09,0
		c0.35,0.01,1.04,0.11,1.07,0.09c0.39,0.09,0.77,0.2,1.16,0.33c0.03,0.06,0.86,0.46,1.15,0.64c0.22,0.21,0.45,0.44,0.67,0.64
		c0.01,0.01,0.05,0.05,0.1,0.1c0.11,0.15,0.28,0.35,0.33,0.43c0.23,0.39,0.79,1.62,0.4,0.56c0.11,0.31,0.23,0.63,0.32,0.95
		c0.02,0.07,0.09,0.41,0.15,0.67c0.01,0.27,0.05,0.75,0.06,0.87c0,0.19,0,0.37,0,0.56c0,0.87,0,1.75,0,2.62c0,1.85,0.01,3.7,0,5.55
		c0,0.19,0,0.39,0,0.58c0,0.05-0.05,0.62-0.06,0.87c-0.04,0.16-0.07,0.33-0.09,0.4c-0.07,0.27-0.16,0.53-0.25,0.79
		c-0.04-0.02-0.49,0.89-0.66,1.17c-0.22,0.22-0.68,0.58-0.83,0.84c-0.01,0.02,0,0.01-0.01,0.03c-0.32,0.18-0.68,0.41-0.98,0.61
		c-0.06,0.04-0.17,0.09-0.27,0.14c-0.2,0.07-0.4,0.14-0.6,0.2c-0.19,0.05-0.37,0.09-0.56,0.13c0.07-0.03-0.53,0.07-0.91,0.08
		C86.95,149.89,81.75,149.99,76.57,149.89z"/>
	<path class="st0" d="M159.89,120.43c-4.11-2.37-8.51-2.3-13.05-2.3c-3.61,0-7.23-0.03-10.84,0c-7.3,0.06-13.48,4.34-16.21,11.07
		c-1.64,4.04-1.14,8.81-1.14,13.08c0,5.81,1.23,11.39,5.92,15.31c3.21,2.69,7.04,4.11,11.24,4.19c1.48,0.03,2.96,0,4.44,0
		c3.69,0,7.38,0,11.08,0c7.86-0.18,15.12-5.58,16.71-13.47c0.78-3.88,0.4-8.07,0.4-12C168.44,129.84,165.67,123.77,159.89,120.43z
		 M155.43,147.93C155.01,148.59,155.25,148.18,155.43,147.93L155.43,147.93z M154.57,131.15
		C155.24,131.56,154.82,131.32,154.57,131.15L154.57,131.15z M135.76,149.89c-0.24,0-0.49-0.03-0.72-0.03c0,0,0,0,0,0
		c-0.41-0.14-0.84-0.25-1.26-0.37c0.01-0.05-0.99-0.53-1.2-0.66c-0.02-0.01-0.07-0.05-0.11-0.08c-0.17-0.17-0.5-0.5-0.56-0.56
		c-0.09-0.08-0.11-0.1-0.17-0.15c-0.13-0.19-0.27-0.39-0.39-0.59c-0.11-0.18-0.21-0.49-0.36-0.65c-0.01-0.01,0,0-0.01-0.01
		c-0.12-0.54-0.3-1.1-0.45-1.64c0.31,1.2,0.03-0.13,0.02-0.53c-0.05-2.95-0.01-5.9,0-8.85c0-0.53,0.02-1.05,0.05-1.58
		c-0.05,1.13,0.11-0.18,0.23-0.66c0.06-0.24,0.16-0.48,0.24-0.71c-0.45,1.24,0.14-0.14,0.27-0.35c0.11-0.18,0.25-0.36,0.36-0.55
		c0.02-0.01,0.01,0.01,0.03-0.01c0.22-0.13,0.82-0.7,0.8-0.76c0.39-0.25,0.79-0.49,1.2-0.73c0.35-0.09,0.7-0.21,1.05-0.31
		c0.08-0.02,0.09-0.03,0.15-0.04c0.28-0.02,0.55-0.03,0.83-0.04c0.05,0,0.1,0,0.15,0c0.42-0.01,0.84,0,1.26,0c1.62,0,3.25,0,4.87,0
		c3.03,0,6.06-0.05,9.09,0c0.35,0.01,1.04,0.11,1.07,0.09c0.39,0.09,0.77,0.2,1.16,0.33c0.03,0.06,0.86,0.46,1.15,0.64
		c0.22,0.21,0.44,0.44,0.67,0.64c0.01,0.01,0.06,0.05,0.1,0.1c0.11,0.15,0.28,0.35,0.33,0.43c0.23,0.39,0.79,1.62,0.4,0.56
		c0.11,0.31,0.22,0.63,0.32,0.95c0.02,0.07,0.09,0.41,0.15,0.67c0.01,0.27,0.06,0.75,0.06,0.87c0,0.19,0,0.37,0,0.56
		c0,0.87,0,1.75,0,2.62c0,1.85,0.01,3.7,0,5.55c0,0.19,0,0.39,0,0.58c0,0.05-0.05,0.62-0.06,0.87c-0.04,0.16-0.07,0.33-0.09,0.4
		c-0.07,0.27-0.16,0.53-0.25,0.79c-0.04-0.02-0.49,0.89-0.66,1.17c-0.22,0.22-0.68,0.58-0.83,0.84c-0.01,0.02,0,0.01-0.01,0.03
		c-0.32,0.18-0.68,0.41-0.98,0.61c-0.06,0.04-0.17,0.09-0.27,0.14c-0.2,0.07-0.4,0.14-0.6,0.2c-0.19,0.05-0.37,0.09-0.56,0.13
		c0.07-0.03-0.53,0.07-0.91,0.08C146.14,149.89,140.94,149.99,135.76,149.89z"/>
	<path class="st0" d="M221.45,120.43c-4.11-2.37-8.51-2.3-13.05-2.3c-3.61,0-7.23-0.03-10.84,0c-7.3,0.06-13.48,4.34-16.21,11.07
		c-1.64,4.04-1.14,8.81-1.14,13.08c0,5.81,1.23,11.39,5.92,15.31c3.21,2.69,7.04,4.11,11.24,4.19c1.48,0.03,2.96,0,4.44,0
		c3.69,0,7.38,0,11.08,0c7.86-0.18,15.12-5.58,16.71-13.47c0.78-3.88,0.4-8.07,0.4-12C229.99,129.84,227.23,123.77,221.45,120.43z
		 M216.99,147.93C216.57,148.59,216.81,148.18,216.99,147.93L216.99,147.93z M216.13,131.15
		C216.8,131.56,216.38,131.32,216.13,131.15L216.13,131.15z M197.32,149.89c-0.24,0-0.49-0.03-0.72-0.03c0,0,0,0,0,0
		c-0.41-0.14-0.84-0.25-1.26-0.37c0.01-0.05-0.99-0.53-1.2-0.66c-0.02-0.01-0.07-0.05-0.11-0.08c-0.17-0.17-0.5-0.5-0.56-0.56
		c-0.09-0.08-0.11-0.1-0.17-0.15c-0.14-0.19-0.27-0.39-0.39-0.59c-0.11-0.18-0.21-0.49-0.36-0.65c-0.01-0.01,0,0-0.01-0.01
		c-0.12-0.54-0.3-1.1-0.45-1.64c0.31,1.2,0.03-0.13,0.02-0.53c-0.05-2.95-0.01-5.9,0-8.85c0-0.53,0.02-1.05,0.05-1.58
		c-0.05,1.13,0.11-0.18,0.23-0.66c0.06-0.24,0.16-0.48,0.24-0.71c-0.45,1.24,0.14-0.14,0.27-0.35c0.11-0.18,0.25-0.36,0.36-0.55
		c0.02-0.01,0.01,0.01,0.03-0.01c0.22-0.13,0.82-0.7,0.8-0.76c0.39-0.25,0.79-0.49,1.2-0.73c0.35-0.09,0.7-0.21,1.05-0.31
		c0.08-0.02,0.09-0.03,0.15-0.04c0.28-0.02,0.55-0.03,0.83-0.04c0.05,0,0.1,0,0.15,0c0.42-0.01,0.84,0,1.26,0c1.62,0,3.25,0,4.87,0
		c3.03,0,6.06-0.05,9.09,0c0.35,0.01,1.04,0.11,1.07,0.09c0.39,0.09,0.77,0.2,1.16,0.33c0.03,0.06,0.86,0.46,1.15,0.64
		c0.22,0.21,0.45,0.44,0.67,0.64c0.01,0.01,0.05,0.05,0.1,0.1c0.11,0.15,0.28,0.35,0.33,0.43c0.23,0.39,0.79,1.62,0.4,0.56
		c0.11,0.31,0.23,0.63,0.32,0.95c0.02,0.07,0.09,0.41,0.15,0.67c0.01,0.27,0.05,0.75,0.06,0.87c0,0.19,0,0.37,0,0.56
		c0,0.87,0,1.75,0,2.62c0,1.85,0.01,3.7,0,5.55c0,0.19,0,0.39,0,0.58c0,0.05-0.05,0.62-0.06,0.87c-0.04,0.16-0.07,0.33-0.09,0.4
		c-0.07,0.27-0.16,0.53-0.25,0.79c-0.04-0.02-0.49,0.89-0.66,1.17c-0.22,0.22-0.68,0.58-0.83,0.84c-0.01,0.02,0,0.01-0.01,0.03
		c-0.32,0.18-0.68,0.41-0.98,0.61c-0.06,0.04-0.17,0.09-0.27,0.14c-0.2,0.07-0.4,0.14-0.6,0.2c-0.19,0.05-0.37,0.09-0.56,0.13
		c0.07-0.03-0.53,0.07-0.91,0.08C207.7,149.89,202.5,149.99,197.32,149.89z"/>
	<path class="st0" d="M267.19,89.43c-2.88-19.87-16.01-37.57-34.3-45.94c-10.55-4.83-21.4-5.61-32.74-5.61c-12.29,0-24.58,0-36.87,0
		c-24.29,0-48.58-0.1-72.87,0c-34.33,0.14-61.55,26.99-61.72,61.43c-0.13,24.84,0,49.69,0,74.53c0,8.96-0.1,17.94,0,26.9
		c0.21,18.14,7.95,35.49,22.12,47.02c20.62,16.77,46.57,13.7,71.32,13.7c26.64,0,53.29,0,79.93,0c1.82,0,3.64,0,5.46,0
		c20.7-0.34,39.9-10.63,51.08-28.2c7.28-11.44,9.29-24.16,9.29-37.42c0-26.76,0-53.52,0-80.28C267.88,106.94,268.43,98,267.19,89.43
		z M74.76,51.92c8.2-2.5,16.53-2.14,24.97-2.14c12.04,0,24.09,0,36.13,0c23.14,0,46.28-0.05,69.42,0
		c26.51,0.06,46.11,17.78,49.96,42.51c-23.3,0-46.61,0-69.91,0c-40.77,0-81.54,0-122.32,0c-7.32,0-14.64,0-21.96,0
		C43.27,73.67,56.77,57.4,74.76,51.92z M255.97,200.31c-0.15,16.43-7.69,31.93-21.58,41.12c-8.07,5.34-17.25,7.96-26.88,8.12
		c-39.42,0-78.88,0.54-118.29,0c-18.1-0.25-34.6-9.91-43.13-26c-5.13-9.67-5.5-19.86-5.5-30.45c0-25.67,0-51.35,0-77.02
		c0-3.94-0.1-7.91-0.12-11.88c23.59,0,47.17,0,70.76,0c40.77,0,81.54,0,122.32,0c7.48,0,14.95,0,22.43,0c0,23.41,0,46.82,0,70.23
		C255.97,183.05,256.05,191.68,255.97,200.31z"/>
</g>
</svg>
