<?xml version="1.0" encoding="utf-8"?>
<!-- Generator: Adobe Illustrator 27.3.1, SVG Export Plug-In . SVG Version: 6.00 Build 0)  -->
<svg version="1.1" id="Camada_1" xmlns="http://www.w3.org/2000/svg" xmlns:xlink="http://www.w3.org/1999/xlink" x="0px" y="0px"
	 viewBox="0 0 300 300" style="enable-background:new 0 0 300 300;" xml:space="preserve">
<style type="text/css">
	.st0{fill:#FFFFFF;}
</style>
<path class="st0" d="M223.2,55c-23.5,23.5-47,47-70.5,70.5c-16.7-16.7-33.4-33.4-50.1-50.1C95.9,68.6,89.1,61.8,82.3,55
	c-15.5-15.5-39.7,8.6-24.2,24.2c23.5,23.5,47,47,70.5,70.5c-16.7,16.7-33.4,33.4-50.1,50.1c-6.8,6.8-13.6,13.6-20.4,20.4
	c-15.5,15.5,8.6,39.7,24.2,24.2c23.5-23.5,47-47,70.5-70.5c16.7,16.7,33.4,33.4,50.1,50.1c6.8,6.8,13.6,13.6,20.4,20.4
	c15.5,15.5,39.7-8.6,24.2-24.2c-23.5-23.5-47-47-70.5-70.5c16.7-16.7,33.4-33.4,50.1-50.1c6.8-6.8,13.6-13.6,20.4-20.4
	C262.9,63.6,238.8,39.4,223.2,55z"/>
</svg>
