<?xml version="1.0" encoding="utf-8"?>
<!-- Generator: Adobe Illustrator 27.3.1, SVG Export Plug-In . SVG Version: 6.00 Build 0)  -->
<svg version="1.1" id="Camada_1" xmlns="http://www.w3.org/2000/svg" xmlns:xlink="http://www.w3.org/1999/xlink" x="0px" y="0px"
	 viewBox="0 0 300 300" style="enable-background:new 0 0 300 300;" xml:space="preserve">
<style type="text/css">
	.st0{fill:#FFFFFF;}
</style>
<path class="st0" d="M267.54,34.69c-13.38-7.82-29.43-2.59-37.57,9.85c-35.1,53.62-70.2,107.24-105.3,160.86
	c-15.79-14.48-31.58-28.95-47.37-43.43c-10.93-10.02-28.03-10.81-38.83,0c-10.16,10.16-10.97,28.78,0,38.83
	c24.02,22.02,48.04,44.03,72.05,66.05c13.49,12.37,33.18,9.64,43.13-5.56c36.08-55.12,72.17-110.25,108.25-165.37
	c5.17-7.89,10.33-15.78,15.5-23.67C285.52,59.85,279.88,41.91,267.54,34.69z"/>
</svg>
