<?xml version="1.0" encoding="utf-8"?>
<!-- Generator: Adobe Illustrator 27.3.1, SVG Export Plug-In . SVG Version: 6.00 Build 0)  -->
<svg version="1.1" id="Camada_1" xmlns="http://www.w3.org/2000/svg" xmlns:xlink="http://www.w3.org/1999/xlink" x="0px" y="0px"
	 viewBox="0 0 300 300" style="enable-background:new 0 0 300 300;" xml:space="preserve">
<style type="text/css">
	.st0{fill:#9C9C9C;}
</style>
<g>
	<path class="st0" d="M230.26,222.67c-46.06,0-92.12,0-138.18,0c-6.56,0-13.11,0-19.67,0c-10.26,0-10.27,15.94,0,15.94
		c46.06,0,92.12,0,138.18,0c6.56,0,13.11,0,19.67,0C240.51,238.61,240.53,222.67,230.26,222.67z"/>
	<path class="st0" d="M263.74,178.66c-12.23,0-24.47,0-36.7,0c-0.6-32.05-18.03-63.22-48.45-75.66
		c-29.87-12.21-63.27-0.73-82.39,24.4c-11.21,14.74-16.72,32.85-17.05,51.26c-4.98,0-9.95,0-14.93,0c-9.49,0-18.98,0-28.47,0
		c-10.26,0-10.27,15.94,0,15.94c25.61,0,51.22,0,76.84,0c40.9,0,81.8,0,122.69,0c9.49,0,18.98,0,28.47,0
		C273.99,194.6,274.01,178.66,263.74,178.66z M95.08,178.66c0.67-32.18,23.38-64.74,58-64.74c34.63,0,57.33,32.56,58,64.74
		c-8.06,0-16.13,0-24.19,0C156.3,178.66,125.69,178.66,95.08,178.66z"/>
	<path class="st0" d="M42.72,123.84c5.35,3.21,10.71,6.43,16.06,9.64c0.76,0.45,1.51,0.91,2.27,1.36c1.76,1.06,4.17,1.35,6.14,0.8
		c1.85-0.51,3.85-1.94,4.76-3.66c2.04-3.86,0.96-8.61-2.86-10.9c-5.35-3.21-10.71-6.43-16.06-9.64c-0.76-0.45-1.51-0.91-2.27-1.36
		c-1.76-1.06-4.17-1.35-6.14-0.8c-1.85,0.51-3.85,1.94-4.76,3.66C37.82,116.79,38.9,121.55,42.72,123.84z"/>
	<path class="st0" d="M231.64,135.65c2.23,0.51,4.06,0.09,6.14-0.8c7.5-3.21,15-6.43,22.5-9.64c1.06-0.45,2.11-0.91,3.17-1.36
		c1.7-0.73,3.2-3.07,3.66-4.76c0.53-1.91,0.29-4.45-0.8-6.14c-1.1-1.7-2.73-3.2-4.76-3.66c-2.23-0.51-4.06-0.09-6.14,0.8
		c-7.5,3.21-15,6.43-22.5,9.64c-1.06,0.45-2.11,0.91-3.17,1.36c-1.7,0.73-3.2,3.07-3.66,4.76c-0.53,1.91-0.29,4.45,0.8,6.14
		C227.98,133.68,229.61,135.18,231.64,135.65z"/>
	<path class="st0" d="M104.5,82.04c0.45,0.76,0.91,1.51,1.36,2.27c1.04,1.73,2.81,3.12,4.76,3.66c1.91,0.53,4.45,0.29,6.14-0.8
		c3.59-2.32,5.15-7.08,2.86-10.9c-3.21-5.35-6.43-10.71-9.64-16.06c-0.45-0.76-0.91-1.51-1.36-2.27c-1.04-1.73-2.81-3.12-4.76-3.66
		c-1.91-0.53-4.45-0.29-6.14,0.8c-3.59,2.32-5.15,7.08-2.86,10.9C98.08,71.33,101.29,76.68,104.5,82.04z"/>
	<path class="st0" d="M182.07,87.17c3.86,2.04,8.61,0.96,10.9-2.86c3.21-5.35,6.43-10.71,9.64-16.06c0.45-0.76,0.91-1.51,1.36-2.27
		c1.06-1.76,1.35-4.17,0.8-6.14c-0.51-1.85-1.94-3.85-3.66-4.76c-3.86-2.04-8.61-0.96-10.9,2.86c-3.21,5.35-6.43,10.71-9.64,16.06
		c-0.45,0.76-0.91,1.52-1.36,2.27c-1.06,1.76-1.35,4.17-0.8,6.14C178.92,84.26,180.34,86.26,182.07,87.17z"/>
</g>
</svg>
